<?xml version="1.0" encoding="UTF-8" standalone="no"?><!-- Created with Inkscape (http://www.inkscape.org/) -->

<svg height="512" id="svg1" version="1.1" viewBox="0 0 512 512" width="512"
    xmlns="http://www.w3.org/2000/svg" xml:space="preserve"><defs
     id="defs1" />
    <g id="layer1"><g
       style="fill:#ffffff"
       id="g1"
       transform="matrix(0.275,0,0,0.275,124,388)"><path
         style="fill:#ffffff"
         d="m 500,-600 q -11,0 -17,-10 -6,-10 0,-20 l 117,-203 q 8,-13 20,-15.5 12,-2.5 26,4.5 69,31 122,86.5 53,55.5 82,125.5 5,13 -1.5,22.5 -6.5,9.5 -20.5,9.5 z m -143,49 -120,-208 q -8,-13 -4,-26 4,-13 16,-21 48,-34 106.5,-54 58.5,-20 124.5,-20 15,0 33,1.5 18,1.5 30,3.5 14,2 18.5,12 4.5,10 -2.5,22 l -167,290 q -6,10 -17.5,10 -11.5,0 -17.5,-10 z m -243,151 q -11,0 -20,-7.5 -9,-7.5 -11,-18.5 -2,-11 -2.5,-24 -0.5,-13 -0.5,-30 0,-63 20.5,-125.5 Q 121,-668 164,-724 q 11,-14 25.5,-14 14.5,0 22.5,15 l 168,293 q 6,10 -0.5,20 -6.5,10 -17.5,10 z m 200,284 q -66,-32 -121,-87 -55,-55 -83,-125 -5,-13 2,-22.5 7,-9.5 21,-9.5 h 326 q 11,0 17,10 6,10 0,20 l -115,201 q -8,13 -20,17 -12,4 -27,-4 z m 166,36 q -14,0 -31.5,-1.5 Q 431,-83 418,-85 q -14,-2 -19,-12 -5,-10 2,-22 l 165,-288 q 6,-10 20,-10 14,0 20,10 l 118,205 q 7,11 4.5,24 -2.5,13 -16.5,24 -46,34 -107.5,54 Q 543,-80 480,-80 Z M 751,-235 581,-530 q -6,-10 0.5,-20 6.5,-10 17.5,-10 h 247 q 11,0 20,7.5 9,7.5 11,18.5 2,11 2.5,24 0.5,13 0.5,30 0,63 -20.5,126.5 Q 839,-290 796,-235 q -8,11 -23,11.5 -15,0.5 -22,-11.5 z"
         id="path1" /></g></g></svg>
